# xmcd CD database file
#
# Track frame offsets:
#	150
#	32147
#	56059
#	70388
#	95918
#	117657
#	143236
#	168699
#	187387
#	214127
#	240165
#
# Disc length: 3510 seconds
#
# Revision: 0
# Processed by: cddbd v1.5.2PL0 Copyright (c) Steve Scherf et al.
# Submitted via: CDex 1.51
#
DISCID=b20db40b
DTITLE=Misha Piatigorsky - Uncommon Circumstance
DYEAR=2007
DGENRE=Jazz
TTITLE0=Where's The Sun
TTITLE1=Montevideo
TTITLE2=Land of Confusion
TTITLE3=Uncommon Circumstance
TTITLE4=I Fall In Love Too Easily
TTITLE5=SoHa
TTITLE6=Nachlaot
TTITLE7=Fishing Boats
TTITLE8=Spanky's Dilemma
TTITLE9=Superhero
TTITLE10=Lonely Butterfly
EXTD=YEAR: 2007
EXTT0=
EXTT1=
EXTT2=
EXTT3=
EXTT4=
EXTT5=
EXTT6=
EXTT7=
EXTT8=
EXTT9=
EXTT10=
PLAYORDER=
